<svg width="28" height="28" viewBox="0 0 28 28" fill="none" xmlns="http://www.w3.org/2000/svg">
<path d="M20.7232 15.4228L12.4743 23.6717C11.4637 24.6823 10.0931 25.25 8.66397 25.25C7.23483 25.25 5.86423 24.6823 4.85367 23.6717C3.84311 22.6612 3.27539 21.2906 3.27539 19.8614C3.27539 18.4323 3.84311 17.0617 4.85367 16.0511L13.1026 7.80219C13.7763 7.12848 14.69 6.75 15.6428 6.75C16.5956 6.75 17.5093 7.12848 18.183 7.80219C18.8567 8.47589 19.2352 9.38963 19.2352 10.3424C19.2352 11.2951 18.8567 12.2089 18.183 12.8826L9.9251 21.1315C9.58825 21.4684 9.13138 21.6576 8.655 21.6576C8.17862 21.6576 7.72175 21.4684 7.3849 21.1315C7.04804 20.7947 6.8588 20.3378 6.8588 19.8614C6.8588 19.385 7.04804 18.9282 7.3849 18.5913L15.0055 10.9797" stroke="#0E0E0F" stroke-width="1.5" stroke-linecap="round" stroke-linejoin="round"/>
<rect x="11" y="1" width="16" height="16" rx="8" fill="#C4C8D0"/>
<path d="M21.8359 8.50195V9.9375C21.8359 10.5938 21.7695 11.1543 21.6367 11.6191C21.5039 12.084 21.3125 12.4648 21.0625 12.7617C20.8125 13.0547 20.5137 13.2715 20.166 13.4121C19.8184 13.5488 19.4316 13.6172 19.0059 13.6172C18.666 13.6172 18.3496 13.5742 18.0566 13.4883C17.7637 13.3984 17.5 13.2617 17.2656 13.0781C17.0352 12.8906 16.8359 12.6523 16.668 12.3633C16.5039 12.0742 16.377 11.7285 16.2871 11.3262C16.2012 10.9238 16.1582 10.4609 16.1582 9.9375V8.50195C16.1582 7.8457 16.2246 7.28711 16.3574 6.82617C16.4941 6.36523 16.6875 5.98828 16.9375 5.69531C17.1875 5.40234 17.4863 5.18945 17.834 5.05664C18.1816 4.91992 18.5684 4.85156 18.9941 4.85156C19.3379 4.85156 19.6543 4.89453 19.9434 4.98047C20.2363 5.06641 20.498 5.20117 20.7285 5.38477C20.9629 5.56445 21.1621 5.79883 21.3262 6.08789C21.4902 6.37305 21.6152 6.7168 21.7012 7.11914C21.791 7.51758 21.8359 7.97852 21.8359 8.50195ZM20.2891 10.1484V8.28516C20.2891 7.95703 20.2695 7.67188 20.2305 7.42969C20.1953 7.18359 20.1426 6.97461 20.0723 6.80273C20.002 6.63086 19.9141 6.49219 19.8086 6.38672C19.7031 6.27734 19.582 6.19727 19.4453 6.14648C19.3086 6.0957 19.1582 6.07031 18.9941 6.07031C18.791 6.07031 18.6094 6.11133 18.4492 6.19336C18.2891 6.27148 18.1543 6.39648 18.0449 6.56836C17.9355 6.74023 17.8516 6.96875 17.793 7.25391C17.7383 7.53516 17.7109 7.87891 17.7109 8.28516V10.1484C17.7109 10.4766 17.7285 10.7637 17.7637 11.0098C17.8027 11.2559 17.8574 11.4668 17.9277 11.6426C18.002 11.8184 18.0898 11.9629 18.1914 12.0762C18.2969 12.1855 18.418 12.2676 18.5547 12.3223C18.6914 12.373 18.8418 12.3984 19.0059 12.3984C19.2129 12.3984 19.3945 12.3574 19.5508 12.2754C19.7109 12.1934 19.8457 12.0645 19.9551 11.8887C20.0645 11.709 20.1465 11.4766 20.2012 11.1914C20.2598 10.9023 20.2891 10.5547 20.2891 10.1484Z" fill="white"/>
<rect x="11" y="1" width="16" height="16" rx="8" stroke="white" stroke-width="2"/>
</svg>
