<svg width="28" height="28" viewBox="0 0 28 28" fill="none" xmlns="http://www.w3.org/2000/svg">
<path d="M20.7232 15.4228L12.4743 23.6717C11.4637 24.6823 10.0931 25.25 8.66397 25.25C7.23483 25.25 5.86423 24.6823 4.85367 23.6717C3.84311 22.6612 3.27539 21.2906 3.27539 19.8614C3.27539 18.4323 3.84311 17.0617 4.85367 16.0511L13.1026 7.80219C13.7763 7.12848 14.69 6.75 15.6428 6.75C16.5956 6.75 17.5093 7.12848 18.183 7.80219C18.8567 8.47589 19.2352 9.38963 19.2352 10.3424C19.2352 11.2951 18.8567 12.2089 18.183 12.8826L9.9251 21.1315C9.58825 21.4684 9.13138 21.6576 8.655 21.6576C8.17862 21.6576 7.72175 21.4684 7.3849 21.1315C7.04804 20.7947 6.8588 20.3378 6.8588 19.8614C6.8588 19.385 7.04804 18.9282 7.3849 18.5913L15.0055 10.9797" stroke="#0E0E0F" stroke-width="1.5" stroke-linecap="round" stroke-linejoin="round"/>
<rect x="11" y="1" width="16" height="16" rx="8" fill="#1C85E8"/>
<path d="M22.1113 10.3887V11.6074H15.9648L15.9004 10.6699L19.5156 4.96875H20.752L19.416 7.23633L17.4766 10.3887H22.1113ZM21.0977 4.96875V13.5H19.5449V4.96875H21.0977Z" fill="white"/>
<rect x="11" y="1" width="16" height="16" rx="8" stroke="white" stroke-width="2"/>
</svg>
