<svg width="28" height="28" viewBox="0 0 28 28" fill="none" xmlns="http://www.w3.org/2000/svg">
<path d="M20.7232 15.4228L12.4743 23.6717C11.4637 24.6823 10.0931 25.25 8.66397 25.25C7.23483 25.25 5.86423 24.6823 4.85367 23.6717C3.84311 22.6612 3.27539 21.2906 3.27539 19.8614C3.27539 18.4323 3.84311 17.0617 4.85367 16.0511L13.1026 7.80219C13.7763 7.12848 14.69 6.75 15.6428 6.75C16.5956 6.75 17.5093 7.12848 18.183 7.80219C18.8567 8.47589 19.2352 9.38963 19.2352 10.3424C19.2352 11.2951 18.8567 12.2089 18.183 12.8826L9.9251 21.1315C9.58825 21.4684 9.13138 21.6576 8.655 21.6576C8.17862 21.6576 7.72175 21.4684 7.3849 21.1315C7.04804 20.7947 6.8588 20.3378 6.8588 19.8614C6.8588 19.385 7.04804 18.9282 7.3849 18.5913L15.0055 10.9797" stroke="#0E0E0F" stroke-width="1.5" stroke-linecap="round" stroke-linejoin="round"/>
<rect x="11" y="1" width="16" height="16" rx="8" fill="#1C85E8"/>
<path d="M21.9648 12.2812V13.5H16.1875V12.457L18.959 9.46289C19.248 9.13477 19.4766 8.84961 19.6445 8.60742C19.8125 8.36523 19.9316 8.14648 20.002 7.95117C20.0762 7.75195 20.1133 7.5625 20.1133 7.38281C20.1133 7.12109 20.0664 6.89258 19.9727 6.69727C19.8789 6.49805 19.7422 6.34375 19.5625 6.23438C19.3867 6.125 19.1699 6.07031 18.9121 6.07031C18.627 6.07031 18.3828 6.13672 18.1797 6.26953C17.9805 6.39844 17.8281 6.57812 17.7227 6.80859C17.6211 7.03906 17.5703 7.30273 17.5703 7.59961H16.0176C16.0176 7.0957 16.1348 6.63672 16.3691 6.22266C16.6035 5.80469 16.9395 5.4707 17.377 5.2207C17.8145 4.9707 18.334 4.8457 18.9355 4.8457C19.5215 4.8457 20.0176 4.94336 20.4238 5.13867C20.8301 5.33008 21.1387 5.60352 21.3496 5.95898C21.5605 6.31445 21.666 6.73828 21.666 7.23047C21.666 7.50391 21.6211 7.77344 21.5312 8.03906C21.4414 8.30469 21.3145 8.56836 21.1504 8.83008C20.9902 9.08789 20.7988 9.34961 20.5762 9.61523C20.3535 9.88086 20.1055 10.1523 19.832 10.4297L18.168 12.2812H21.9648Z" fill="white"/>
<rect x="11" y="1" width="16" height="16" rx="8" stroke="white" stroke-width="2"/>
</svg>
