<svg width="28" height="28" viewBox="0 0 28 28" fill="none" xmlns="http://www.w3.org/2000/svg">
<path d="M20.7232 15.4228L12.4743 23.6717C11.4637 24.6823 10.0931 25.25 8.66397 25.25C7.23483 25.25 5.86423 24.6823 4.85367 23.6717C3.84311 22.6612 3.27539 21.2906 3.27539 19.8614C3.27539 18.4323 3.84311 17.0617 4.85367 16.0511L13.1026 7.80219C13.7763 7.12848 14.69 6.75 15.6428 6.75C16.5956 6.75 17.5093 7.12848 18.183 7.80219C18.8567 8.47589 19.2352 9.38963 19.2352 10.3424C19.2352 11.2951 18.8567 12.2089 18.183 12.8826L9.9251 21.1315C9.58825 21.4684 9.13138 21.6576 8.655 21.6576C8.17862 21.6576 7.72175 21.4684 7.3849 21.1315C7.04804 20.7947 6.8588 20.3378 6.8588 19.8614C6.8588 19.385 7.04804 18.9282 7.3849 18.5913L15.0055 10.9797" stroke="#0E0E0F" stroke-width="1.5" stroke-linecap="round" stroke-linejoin="round"/>
<rect x="11" y="1" width="16" height="16" rx="8" fill="#1C85E8"/>
<path d="M20.4941 4.89844H20.7051V6.14648H20.6055C20.1328 6.14648 19.7168 6.21875 19.3574 6.36328C19.002 6.50781 18.7051 6.71094 18.4668 6.97266C18.2324 7.23047 18.0547 7.53711 17.9336 7.89258C17.8125 8.24414 17.752 8.62891 17.752 9.04688V10.4297C17.752 10.7539 17.7852 11.0391 17.8516 11.2852C17.9219 11.5273 18.0176 11.7324 18.1387 11.9004C18.2637 12.0645 18.4082 12.1875 18.5723 12.2695C18.7402 12.3516 18.9238 12.3926 19.123 12.3926C19.3223 12.3926 19.502 12.3516 19.6621 12.2695C19.8223 12.1875 19.959 12.0723 20.0723 11.9238C20.1895 11.7715 20.2773 11.5938 20.3359 11.3906C20.3984 11.1875 20.4297 10.9648 20.4297 10.7227C20.4297 10.4844 20.4004 10.2637 20.3418 10.0605C20.2832 9.85742 20.1973 9.67969 20.084 9.52734C19.9707 9.37109 19.8301 9.25195 19.6621 9.16992C19.498 9.08398 19.3105 9.04102 19.0996 9.04102C18.8262 9.04102 18.582 9.10547 18.3672 9.23438C18.1523 9.35938 17.9824 9.52344 17.8574 9.72656C17.7324 9.92969 17.6641 10.1445 17.6523 10.3711L17.1309 10.1133C17.1504 9.78125 17.2207 9.47656 17.3418 9.19922C17.4668 8.92188 17.6328 8.67969 17.8398 8.47266C18.0508 8.26562 18.2988 8.10547 18.584 7.99219C18.873 7.87891 19.1934 7.82227 19.5449 7.82227C19.9512 7.82227 20.3066 7.90039 20.6113 8.05664C20.916 8.20898 21.168 8.41797 21.3672 8.68359C21.5703 8.94922 21.7227 9.25586 21.8242 9.60352C21.9258 9.94727 21.9766 10.3105 21.9766 10.6934C21.9766 11.1035 21.9102 11.4863 21.7773 11.8418C21.6484 12.1973 21.4609 12.5078 21.2148 12.7734C20.9688 13.0391 20.6719 13.2461 20.3242 13.3945C19.9766 13.543 19.5859 13.6172 19.1523 13.6172C18.6953 13.6172 18.2852 13.5312 17.9219 13.3594C17.5625 13.1875 17.2539 12.9492 16.9961 12.6445C16.7383 12.3398 16.541 11.9844 16.4043 11.5781C16.2676 11.1719 16.1992 10.7324 16.1992 10.2598V9.63867C16.1992 8.9707 16.291 8.34961 16.4746 7.77539C16.6582 7.20117 16.9297 6.69922 17.2891 6.26953C17.6523 5.83594 18.1016 5.5 18.6367 5.26172C19.1719 5.01953 19.791 4.89844 20.4941 4.89844Z" fill="white"/>
<rect x="11" y="1" width="16" height="16" rx="8" stroke="white" stroke-width="2"/>
</svg>
