<svg width="28" height="28" viewBox="0 0 28 28" fill="none" xmlns="http://www.w3.org/2000/svg">
<path d="M20.7232 15.4228L12.4743 23.6717C11.4637 24.6823 10.0931 25.25 8.66397 25.25C7.23483 25.25 5.86423 24.6823 4.85367 23.6717C3.84311 22.6612 3.27539 21.2906 3.27539 19.8614C3.27539 18.4323 3.84311 17.0617 4.85367 16.0511L13.1026 7.80219C13.7763 7.12848 14.69 6.75 15.6428 6.75C16.5956 6.75 17.5093 7.12848 18.183 7.80219C18.8567 8.47589 19.2352 9.38963 19.2352 10.3424C19.2352 11.2951 18.8567 12.2089 18.183 12.8826L9.9251 21.1315C9.58825 21.4684 9.13138 21.6576 8.655 21.6576C8.17862 21.6576 7.72175 21.4684 7.3849 21.1315C7.04804 20.7947 6.8588 20.3378 6.8588 19.8614C6.8588 19.385 7.04804 18.9282 7.3849 18.5913L15.0055 10.9797" stroke="#0E0E0F" stroke-width="1.5" stroke-linecap="round" stroke-linejoin="round"/>
<rect x="11" y="1" width="16" height="16" rx="8" fill="#1C85E8"/>
<path d="M17.8809 8.54883H18.7539C19.0625 8.54883 19.3164 8.49609 19.5156 8.39062C19.7188 8.28125 19.8691 8.13281 19.9668 7.94531C20.0684 7.75391 20.1191 7.5332 20.1191 7.2832C20.1191 7.03711 20.0742 6.82422 19.9844 6.64453C19.8945 6.46094 19.7578 6.32031 19.5742 6.22266C19.3945 6.12109 19.1641 6.07031 18.8828 6.07031C18.6562 6.07031 18.4473 6.11523 18.2559 6.20508C18.0684 6.29492 17.918 6.42383 17.8047 6.5918C17.6953 6.75586 17.6406 6.95312 17.6406 7.18359H16.0879C16.0879 6.72266 16.209 6.31836 16.4512 5.9707C16.6973 5.61914 17.0293 5.34375 17.4473 5.14453C17.8652 4.94531 18.332 4.8457 18.8477 4.8457C19.4102 4.8457 19.9023 4.93945 20.3242 5.12695C20.75 5.31055 21.0801 5.58203 21.3145 5.94141C21.5527 6.30078 21.6719 6.74609 21.6719 7.27734C21.6719 7.53125 21.6113 7.78516 21.4902 8.03906C21.373 8.28906 21.1992 8.51562 20.9688 8.71875C20.7422 8.91797 20.4629 9.08008 20.1309 9.20508C19.8027 9.32617 19.4258 9.38672 19 9.38672H17.8809V8.54883ZM17.8809 9.74414V8.91797H19C19.4805 8.91797 19.8965 8.97461 20.248 9.08789C20.6035 9.19727 20.8965 9.35352 21.127 9.55664C21.3574 9.75586 21.5273 9.98828 21.6367 10.2539C21.75 10.5195 21.8066 10.8047 21.8066 11.1094C21.8066 11.5078 21.7324 11.8633 21.584 12.1758C21.4355 12.4844 21.2266 12.7461 20.957 12.9609C20.6914 13.1758 20.3789 13.3398 20.0195 13.4531C19.6602 13.5625 19.2715 13.6172 18.8535 13.6172C18.4902 13.6172 18.1367 13.5684 17.793 13.4707C17.4531 13.3691 17.1465 13.2188 16.873 13.0195C16.5996 12.8164 16.3828 12.5625 16.2227 12.2578C16.0625 11.9492 15.9824 11.5918 15.9824 11.1855H17.5352C17.5352 11.4199 17.5918 11.6289 17.7051 11.8125C17.8223 11.9961 17.9824 12.1406 18.1855 12.2461C18.3926 12.3477 18.625 12.3984 18.8828 12.3984C19.168 12.3984 19.4121 12.3477 19.6152 12.2461C19.8223 12.1406 19.9805 11.9922 20.0898 11.8008C20.1992 11.6055 20.2539 11.373 20.2539 11.1035C20.2539 10.7832 20.1934 10.5234 20.0723 10.3242C19.9512 10.125 19.7773 9.97852 19.5508 9.88477C19.3281 9.79102 19.0625 9.74414 18.7539 9.74414H17.8809Z" fill="white"/>
<rect x="11" y="1" width="16" height="16" rx="8" stroke="white" stroke-width="2"/>
</svg>
