<svg width="20" height="20" viewBox="0 0 20 20" fill="none" xmlns="http://www.w3.org/2000/svg">
<path d="M6.03678 12.3186L8.53106 9.07679L11.3762 11.3117L13.8171 8.16146M12.4365 2.60075H6.38005C3.87052 2.60075 2.31445 4.37802 2.31445 6.88755V13.6229C2.31445 16.1324 3.84001 17.902 6.38005 17.902H13.5502C16.0597 17.902 17.6158 16.1324 17.6158 13.6229V7.75712M18.2639 3.50027C18.2639 4.38493 17.5467 5.1021 16.6621 5.1021C15.7774 5.1021 15.0602 4.38493 15.0602 3.50027C15.0602 2.6156 15.7774 1.89844 16.6621 1.89844C17.5467 1.89844 18.2639 2.6156 18.2639 3.50027Z" stroke="#FF8A4C" stroke-width="1.5" stroke-linecap="round" stroke-linejoin="round"/>
</svg>
