<svg width="20" height="20" viewBox="0 0 20 20" fill="none" xmlns="http://www.w3.org/2000/svg">
<path d="M2.29102 4.39441V8.59896M2.29102 8.59896H6.49556M2.29102 8.59896L5.54253 5.54365C6.29567 4.79014 7.22741 4.23969 8.25083 3.94367C9.27424 3.64764 10.356 3.6157 11.3951 3.85081C12.4342 4.08591 13.3968 4.58042 14.1931 5.28817C14.9894 5.99593 15.5934 6.89386 15.9488 7.8982M17.7077 15.6065V11.402M17.7077 11.402H13.5031M17.7077 11.402L14.4562 14.4573C13.703 15.2108 12.7713 15.7613 11.7479 16.0573C10.7245 16.3533 9.64274 16.3853 8.60364 16.1501C7.56454 15.915 6.60194 15.4205 5.80564 14.7128C5.00935 14.005 4.40532 13.1071 4.04992 12.1027" stroke="#0E0E0F" stroke-width="1.5" stroke-linecap="round" stroke-linejoin="round"/>
</svg>
