<svg width="20" height="20" viewBox="0 0 20 20" fill="none" xmlns="http://www.w3.org/2000/svg">
<path d="M13.9816 6.06568C13.9816 8.26471 12.199 10.0474 9.99992 10.0474C7.80089 10.0474 6.01823 8.26471 6.01823 6.06568C6.01823 3.86665 7.80089 2.08398 9.99992 2.08398C12.199 2.08398 13.9816 3.86665 13.9816 6.06568Z" stroke="#696C71" stroke-width="1.5" stroke-linecap="round" stroke-linejoin="round"/>
<path fill-rule="evenodd" clip-rule="evenodd" d="M3.68751 15.5853C3.68644 15.3054 3.74904 15.0289 3.87058 14.7767C4.25197 14.014 5.32748 13.6097 6.21993 13.4266C6.86356 13.2893 7.51609 13.1975 8.17264 13.152C9.3882 13.0452 10.6108 13.0452 11.8263 13.152C12.4828 13.198 13.1353 13.2898 13.779 13.4266C14.6715 13.6097 15.747 13.9758 16.1284 14.7767C16.3728 15.2907 16.3728 15.8875 16.1284 16.4015C15.747 17.2024 14.6715 17.5685 13.779 17.7439C13.1362 17.887 12.4834 17.9813 11.8263 18.0262C10.837 18.11 9.84299 18.1253 8.85151 18.0719C8.62268 18.0719 8.40147 18.0719 8.17264 18.0262C7.51803 17.9819 6.86777 17.8875 6.22756 17.7439C5.32748 17.5685 4.2596 17.2024 3.87058 16.4015C3.74967 16.1464 3.68713 15.8676 3.68751 15.5853Z" stroke="#696C71" stroke-width="1.5" stroke-linecap="round" stroke-linejoin="round"/>
</svg>
