<svg width="20" height="20" viewBox="0 0 20 20" fill="none" xmlns="http://www.w3.org/2000/svg">
<path d="M2.33659 12.8965C2.33659 12.8965 2.45492 14.3448 2.48242 14.8015C2.51909 15.414 2.75576 16.0982 3.15076 16.5732C3.70826 17.2465 4.36492 17.484 5.24159 17.4856C6.27242 17.4873 13.7683 17.4873 14.7991 17.4856C15.6758 17.484 16.3324 17.2465 16.8899 16.5732C17.2849 16.0982 17.5216 15.414 17.5591 14.8015C17.5858 14.3448 17.7041 12.8965 17.7041 12.8965M7.07943 4.44018V4.13102C7.07943 3.11435 7.90276 2.29102 8.91943 2.29102H11.0711C12.0869 2.29102 12.9111 3.11435 12.9111 4.13102L12.9119 4.44018M9.99528 13.8975V12.8192M2.29102 6.99026V9.87942C3.88935 10.9336 5.80435 11.6719 7.90602 11.9644C8.15768 11.0469 8.98518 10.3744 9.99101 10.3744C10.981 10.3744 11.8252 11.0469 12.0602 11.9728C14.1702 11.6803 16.0927 10.9419 17.6993 9.87942V6.99026C17.6993 5.57859 16.5635 4.44192 15.1518 4.44192H4.84685C3.43518 4.44192 2.29102 5.57859 2.29102 6.99026Z" stroke="#B12217" stroke-width="1.5" stroke-linecap="round" stroke-linejoin="round"/>
</svg>
