<svg width="18" height="18" viewBox="0 0 18 18" fill="none" xmlns="http://www.w3.org/2000/svg">
<path d="M6.73474 6.68685C6.91597 6.17168 7.27367 5.73726 7.7445 5.46056C8.21532 5.18385 8.76889 5.0827 9.30715 5.17502C9.84541 5.26735 10.3336 5.54719 10.6853 5.96499C11.037 6.38278 11.2295 6.91156 11.2287 7.45768C11.2287 8.99935 8.9162 9.77018 8.9162 9.77018M8.97786 12.8535H8.98557M16.6862 8.99935C16.6862 13.2565 13.2351 16.7077 8.97786 16.7077C4.72067 16.7077 1.26953 13.2565 1.26953 8.99935C1.26953 4.74215 4.72067 1.29102 8.97786 1.29102C13.2351 1.29102 16.6862 4.74215 16.6862 8.99935Z" stroke="#0E0E0F" stroke-width="1.5" stroke-linecap="round" stroke-linejoin="round"/>
</svg>
