<svg width="20" height="20" viewBox="0 0 20 20" fill="none" xmlns="http://www.w3.org/2000/svg">
<path d="M8.43077 14.9882H2.40234M11.569 5.21774H17.5984M17.5987 14.9889C17.5987 16.3144 16.5242 17.3889 15.1987 17.3889C13.8732 17.3889 12.7987 16.3144 12.7987 14.9889C12.7987 13.6624 13.8732 12.5889 15.1987 12.5889C16.5242 12.5889 17.5987 13.6624 17.5987 14.9889ZM2.40234 5.21836C2.40234 6.54483 3.47685 7.61836 4.80234 7.61836C6.12783 7.61836 7.20234 6.54483 7.20234 5.21836C7.20234 3.89287 6.12783 2.81836 4.80234 2.81836C3.47685 2.81836 2.40234 3.89287 2.40234 5.21836Z" stroke="#0E0E0F" stroke-width="1.5" stroke-linecap="round" stroke-linejoin="round"/>
</svg>
