<svg width="20" height="20" viewBox="0 0 20 20" fill="none" xmlns="http://www.w3.org/2000/svg">
<path d="M9.00941 6.03551L10.4959 4.54898C10.8213 4.22362 11.2076 3.96553 11.6327 3.78945C12.0578 3.61337 12.5134 3.52274 12.9735 3.52274C13.4336 3.52274 13.8892 3.61337 14.3143 3.78945C14.7394 3.96554 15.1257 4.22362 15.451 4.54898C15.7764 4.87434 16.0345 5.26059 16.2106 5.68569C16.3867 6.11079 16.4773 6.56641 16.4773 7.02653C16.4773 7.48666 16.3867 7.94227 16.2106 8.36737C16.0345 8.79247 15.7764 9.17873 15.451 9.50408L13.9645 10.9906M10.9915 13.9637L9.50492 15.4502C9.17957 15.7756 8.79331 16.0337 8.36821 16.2097C7.94311 16.3858 7.48749 16.4764 7.02737 16.4764C6.09811 16.4764 5.20691 16.1073 4.54982 15.4502C3.89273 14.7931 3.52358 13.9019 3.52358 12.9727C3.52358 12.0434 3.89273 11.1522 4.54982 10.4951L6.03635 9.00857M8.01839 11.9816L11.9825 8.01755" stroke="#C4C8D0" stroke-width="1.5" stroke-linecap="round" stroke-linejoin="round"/>
</svg>
