<svg width="20" height="20" viewBox="0 0 20 20" fill="none" xmlns="http://www.w3.org/2000/svg">
<path d="M16.104 7.88916C16.104 7.88916 15.6515 13.5017 15.389 15.8658C15.264 16.995 14.5665 17.6567 13.424 17.6775C11.2498 17.7167 9.07316 17.7192 6.89982 17.6733C5.80066 17.6508 5.11482 16.9808 4.99232 15.8717C4.72816 13.4867 4.27816 7.88916 4.27816 7.88916M17.2567 5.19873H3.125M14.5338 5.19852C13.8796 5.19852 13.3163 4.73602 13.188 4.09518L12.9855 3.08185C12.8605 2.61435 12.4371 2.29102 11.9546 2.29102H8.42715C7.94465 2.29102 7.52131 2.61435 7.39631 3.08185L7.19381 4.09518C7.06548 4.73602 6.50215 5.19852 5.84798 5.19852" stroke="#B2B5BB" stroke-width="1.5" stroke-linecap="round" stroke-linejoin="round"/>
</svg>
