<svg width="20" height="20" viewBox="0 0 20 20" fill="none" xmlns="http://www.w3.org/2000/svg">
<path fill-rule="evenodd" clip-rule="evenodd" d="M10.5958 2.86736L12.5258 6.74986C12.6224 6.94569 12.8091 7.08236 13.0258 7.11403L17.3466 7.73819C17.5216 7.76153 17.6791 7.85319 17.7866 7.99319C17.9883 8.25569 17.9574 8.62736 17.7158 8.85319L14.5841 11.8815C14.4249 12.0315 14.3541 12.2515 14.3958 12.4657L15.1458 16.739C15.1983 17.0932 14.9566 17.4249 14.6024 17.4824C14.4558 17.5049 14.3058 17.4815 14.1724 17.4157L10.3241 15.3982C10.1308 15.2932 9.89909 15.2932 9.70576 15.3982L5.82909 17.4265C5.50492 17.5915 5.10826 17.469 4.93159 17.1515C4.86409 17.0232 4.84076 16.8774 4.86409 16.7349L5.61409 12.4615C5.65159 12.2482 5.58076 12.029 5.42576 11.8782L2.27743 8.85069C2.02076 8.59569 2.01909 8.18069 2.27493 7.92403C2.27576 7.92319 2.27659 7.92153 2.27743 7.92069C2.38326 7.82486 2.51326 7.76069 2.65409 7.73569L6.97576 7.11153C7.19159 7.07736 7.37743 6.94236 7.47576 6.74653L9.40409 2.86736C9.48159 2.70986 9.61909 2.58903 9.78576 2.53403C9.95326 2.47819 10.1366 2.49153 10.2941 2.57069C10.4233 2.63486 10.5291 2.73903 10.5958 2.86736Z" stroke="#DEAE04" stroke-width="1.5" stroke-linecap="round" stroke-linejoin="round"/>
</svg>
