<svg width="20" height="20" viewBox="0 0 20 20" fill="none" xmlns="http://www.w3.org/2000/svg">
<path d="M13.349 9.09591C14.8665 9.09591 16.0965 7.86591 16.0965 6.34841C16.0965 4.83174 14.8665 3.60091 13.349 3.60091M14.6128 12.0807C15.0661 12.1116 15.5161 12.1766 15.9603 12.2749C16.5761 12.3974 17.3178 12.6499 17.5811 13.2024C17.7495 13.5566 17.7495 13.9691 17.5811 14.3232C17.3186 14.8757 16.5761 15.1282 15.9603 15.2549M7.99185 12.6724C11.0668 12.6724 13.6935 13.1382 13.6935 14.999C13.6935 16.8607 11.0835 17.3424 7.99185 17.3424C4.91685 17.3424 2.29102 16.8774 2.29102 15.0157C2.29102 13.154 4.90018 12.6724 7.99185 12.6724ZM7.99185 10.0165C5.96352 10.0165 4.33852 8.39065 4.33852 6.36232C4.33852 4.33482 5.96352 2.70898 7.99185 2.70898C10.0202 2.70898 11.646 4.33482 11.646 6.36232C11.646 8.39065 10.0202 10.0165 7.99185 10.0165Z" stroke="#104F8B" stroke-width="1.5" stroke-linecap="round" stroke-linejoin="round"/>
</svg>
