<svg width="20" height="20" viewBox="0 0 20 20" fill="none" xmlns="http://www.w3.org/2000/svg">
<path fill-rule="evenodd" clip-rule="evenodd" d="M3.5332 8.66005C3.54521 5.12623 6.41967 2.27123 9.95349 2.28324C13.4873 2.29525 16.3423 5.16971 16.3303 8.70353V8.776C16.2868 11.0731 15.0042 13.1963 13.4318 14.8557C12.5325 15.7896 11.5282 16.6163 10.439 17.3195C10.1478 17.5714 9.71575 17.5714 9.42451 17.3195C7.80076 16.2626 6.37565 14.9282 5.21436 13.3774C4.17933 12.0251 3.59167 10.3837 3.5332 8.68179V8.66005Z" stroke="#9061F9" stroke-width="1.5" stroke-linecap="round" stroke-linejoin="round"/>
<path d="M11.9828 8.78298C11.9828 9.91557 11.0647 10.8337 9.93207 10.8337C8.79949 10.8337 7.88135 9.91557 7.88135 8.78298C7.88135 7.6504 8.79949 6.73226 9.93207 6.73226C11.0647 6.73226 11.9828 7.6504 11.9828 8.78298Z" stroke="#9061F9" stroke-width="1.5" stroke-linecap="round" stroke-linejoin="round"/>
</svg>
