<svg width="20" height="20" viewBox="0 0 20 20" fill="none" xmlns="http://www.w3.org/2000/svg">
<path d="M6.41131 11.1589C5.87401 11.1589 5.4375 10.7224 5.4375 10.1851C5.4375 9.6494 5.87401 9.21289 6.41131 9.21289C6.94861 9.21289 7.38512 9.6494 7.38512 10.1851C7.38512 10.7224 6.94861 11.1589 6.41131 11.1589Z" fill="#0E0E0F"/>
<path d="M10.1965 11.1589C9.65916 11.1589 9.22266 10.7224 9.22266 10.1851C9.22266 9.6494 9.65916 9.21289 10.1965 9.21289C10.7338 9.21289 11.1703 9.6494 11.1703 10.1851C11.1703 10.7224 10.7338 11.1589 10.1965 11.1589Z" fill="#0E0E0F"/>
<path d="M13.9855 11.1589C13.4482 11.1589 13.0117 10.7224 13.0117 10.1851C13.0117 9.6494 13.4482 9.21289 13.9855 9.21289C14.5228 9.21289 14.9593 9.6494 14.9593 10.1851C14.9593 10.7224 14.5228 11.1589 13.9855 11.1589Z" fill="#0E0E0F"/>
<path fill-rule="evenodd" clip-rule="evenodd" d="M10.018 1.66602C5.1763 1.66602 1.66797 5.62111 1.66797 10.0119C1.66797 11.414 2.0763 12.857 2.79297 14.1756C2.9263 14.3934 2.94297 14.668 2.8513 14.9276L2.29297 16.797C2.16797 17.2477 2.5513 17.5807 2.9763 17.4472L4.65964 16.9473C5.11797 16.797 5.4763 16.9882 5.9013 17.2477C7.11797 17.9646 8.63464 18.3327 10.0013 18.3327C14.1346 18.3327 18.3346 15.1362 18.3346 9.98683C18.3346 5.546 14.7513 1.66602 10.018 1.66602Z" stroke="#0E0E0F" stroke-width="1.5" stroke-linecap="round" stroke-linejoin="round"/>
</svg>
