<svg width="21" height="20" viewBox="0 0 21 20" fill="none" xmlns="http://www.w3.org/2000/svg">
<path d="M3.26953 4.39441V8.59896M3.26953 8.59896H7.47408M3.26953 8.59896L6.52105 5.54365C7.27418 4.79014 8.20593 4.23969 9.22934 3.94367C10.2528 3.64764 11.3345 3.6157 12.3736 3.85081C13.4127 4.08591 14.3753 4.58042 15.1716 5.28817C15.9679 5.99593 16.5719 6.89386 16.9273 7.8982M18.6862 15.6065V11.402M18.6862 11.402H14.4817M18.6862 11.402L15.4347 14.4573C14.6815 15.2108 13.7498 15.7613 12.7264 16.0573C11.703 16.3533 10.6213 16.3853 9.58216 16.1501C8.54306 15.915 7.58045 15.4205 6.78416 14.7128C5.98786 14.005 5.38383 13.1071 5.02843 12.1027" stroke="#0E0E0F" stroke-width="1.5" stroke-linecap="round" stroke-linejoin="round"/>
</svg>
