<svg width="28" height="28" viewBox="0 0 28 28" fill="none" xmlns="http://www.w3.org/2000/svg">
<path fill-rule="evenodd" clip-rule="evenodd" d="M27.3327 13.9993C27.3327 21.3594 21.346 27.3327 13.9993 27.3327L13.6263 27.3276C6.43858 27.1298 0.666016 21.2346 0.666016 13.9993C0.666016 6.65268 6.63935 0.666016 13.9993 0.666016C21.346 0.666016 27.3327 6.65268 27.3327 13.9993ZM11.3594 8.66602C10.9727 9.06602 10.9727 9.69268 11.3727 10.0793L15.306 13.9993L11.3727 17.9193C10.9727 18.306 10.9727 18.946 11.3594 19.3327C11.7593 19.7327 12.386 19.7327 12.7727 19.3327L17.426 14.706C17.6127 14.5193 17.7193 14.266 17.7193 13.9993C17.7193 13.7327 17.6127 13.4793 17.426 13.2927L12.7727 8.66602C12.586 8.46602 12.3327 8.37268 12.0793 8.37268C11.8127 8.37268 11.5594 8.46602 11.3594 8.66602Z" fill="#1C85E8"/>
</svg>
