<svg width="116" height="20" viewBox="0 0 116 20" fill="none" xmlns="http://www.w3.org/2000/svg"><path d="M1.435 17V2.455H4.07V14.79h6.406V17H1.435Zm23.758-7.273c0 1.567-.293 2.91-.88 4.027-.582 1.113-1.378 1.965-2.386 2.557-1.004.592-2.143.888-3.417.888-1.273 0-2.415-.296-3.423-.888-1.004-.597-1.8-1.451-2.386-2.564-.583-1.117-.874-2.457-.874-4.02 0-1.567.291-2.907.874-4.02.587-1.117 1.382-1.972 2.386-2.564 1.009-.591 2.15-.887 3.423-.887 1.274 0 2.413.296 3.416.887 1.009.592 1.805 1.447 2.387 2.564.587 1.113.88 2.453.88 4.02Zm-2.649 0c0-1.103-.172-2.033-.518-2.79-.341-.763-.814-1.339-1.42-1.727-.607-.393-1.305-.59-2.096-.59-.79 0-1.489.197-2.095.59-.606.388-1.082.964-1.427 1.726-.341.758-.512 1.688-.512 2.791 0 1.104.17 2.036.512 2.799.345.757.821 1.332 1.427 1.725.606.389 1.305.583 2.095.583.791 0 1.49-.194 2.095-.583.607-.393 1.08-.968 1.42-1.725.347-.763.52-1.695.52-2.799ZM37.43 7.1a3.762 3.762 0 0 0-.49-1.03 3.168 3.168 0 0 0-.739-.788 2.978 2.978 0 0 0-.98-.49 4.089 4.089 0 0 0-1.207-.17c-.782 0-1.477.196-2.088.59-.611.392-1.092.97-1.442 1.732-.346.758-.518 1.681-.518 2.77 0 1.099.172 2.029.518 2.791.346.763.826 1.343 1.442 1.74.615.393 1.33.59 2.145.59.738 0 1.377-.142 1.917-.426a3.003 3.003 0 0 0 1.257-1.208c.294-.525.44-1.14.44-1.846l.597.092h-3.949v-2.06h5.902v1.748c0 1.245-.265 2.322-.795 3.231a5.434 5.434 0 0 1-2.188 2.102c-.928.488-1.993.732-3.196.732-1.34 0-2.516-.3-3.53-.902-1.008-.606-1.796-1.466-2.364-2.578-.564-1.118-.846-2.443-.846-3.978 0-1.174.166-2.223.497-3.146.337-.923.805-1.707 1.407-2.35a5.984 5.984 0 0 1 2.116-1.478 6.74 6.74 0 0 1 2.642-.511c.805 0 1.556.118 2.252.355a5.967 5.967 0 0 1 1.853.994c.545.431.992.942 1.343 1.534.35.592.58 1.245.689 1.96h-2.685Zm18.35 2.628c0 1.567-.293 2.91-.88 4.027-.583 1.113-1.378 1.965-2.387 2.557-1.003.592-2.142.888-3.416.888-1.273 0-2.414-.296-3.423-.888-1.004-.597-1.8-1.451-2.386-2.564-.583-1.117-.874-2.457-.874-4.02 0-1.567.291-2.907.874-4.02.587-1.117 1.382-1.972 2.386-2.564 1.008-.591 2.15-.887 3.423-.887 1.274 0 2.413.296 3.416.887 1.009.592 1.804 1.447 2.387 2.564.587 1.113.88 2.453.88 4.02Zm-2.649 0c0-1.103-.172-2.033-.518-2.79-.341-.763-.815-1.339-1.42-1.727-.607-.393-1.305-.59-2.096-.59-.79 0-1.489.197-2.095.59-.606.388-1.082.964-1.427 1.726-.341.758-.512 1.688-.512 2.791 0 1.104.17 2.036.512 2.799.345.757.821 1.332 1.427 1.725.606.389 1.305.583 2.095.583.791 0 1.49-.194 2.095-.583.606-.393 1.08-.968 1.42-1.725.347-.763.52-1.695.52-2.799ZM65.1 17h-2.813l5.12-14.545h3.254L75.787 17h-2.812L69.09 5.437h-.114L65.1 17Zm.092-5.703h7.67v2.116h-7.67v-2.116ZM77.704 17V2.455h5.455c1.117 0 2.055.194 2.812.582.763.388 1.338.933 1.726 1.633.393.696.59 1.508.59 2.437 0 .932-.2 1.742-.597 2.429-.393.681-.973 1.21-1.74 1.583-.767.37-1.71.554-2.827.554h-3.885V9.486h3.53c.653 0 1.189-.09 1.605-.27.417-.185.725-.452.923-.803.204-.355.306-.79.306-1.306 0-.517-.102-.957-.306-1.321a1.943 1.943 0 0 0-.93-.839c-.416-.194-.954-.29-1.612-.29h-2.415V17h-2.635Zm7.514-6.59L88.82 17h-2.94l-3.537-6.59h2.876ZM90.712 17V2.455h9.46v2.208h-6.825v3.95h6.335v2.208h-6.335v3.97h6.882V17h-9.517Zm14.016 0h-2.812l5.121-14.545h3.252L115.417 17h-2.812L108.72 5.437h-.114L104.728 17Zm.093-5.703h7.67v2.116h-7.67v-2.116Z" fill="#0E0E0F"/></svg>